# xmcd
#
# Track frame offsets: 
#        150
#        16038
#        30843
#        44685
#        63743
#        81377
#        98393
#        114187
#        132462
#        147099
#        162809
#
# Disc length: 2405 seconds
#
# Revision: 0
# Processed by: cddbd v1.5.2PL0 Copyright (c) Steve Scherf et al.
# Submitted via: ExactAudioCopy v0.99pb5
#
DISCID=8309630b
DTITLE=Louise Hoffsten - Looking For Mr God
DYEAR=2012
DGENRE=Blues
TTITLE0=I'll Get  By
TTITLE1=Walk With The Rhytm
TTITLE2=Looking For Mr God
TTITLE3=An Empty Valentine's Box
TTITLE4=Don't Steel My Dreams
TTITLE5=Go For Love
TTITLE6=Hey Mr Hyde
TTITLE7=Tough Love
TTITLE8=Empty Air
TTITLE9=Not Today
TTITLE10=I Fall Down
EXTD=
EXTT0=
EXTT1=
EXTT2=
EXTT3=
EXTT4=
EXTT5=
EXTT6=
EXTT7=
EXTT8=
EXTT9=
EXTT10=
PLAYORDER=
